HIERARCHY
ROOT Hips
{
 OFFSET 0.000000 0.000000 0.000000
 CHANNELS 6 Xposition Yposition Zposition Yrotation Xrotation Zrotation
 JOINT Chest
 {
  OFFSET 0.000000 9.588913 -0.003946
  CHANNELS 3 Yrotation Xrotation Zrotation
  JOINT Chest2
  {
   OFFSET 0.000000 9.541882 0.008053
   CHANNELS 3 Yrotation Xrotation Zrotation
   JOINT Chest3
   {
    OFFSET 0.000000 9.501360 0.000000
    CHANNELS 3 Yrotation Xrotation Zrotation
    JOINT Chest4
    {
     OFFSET 0.000000 9.491660 0.000000
     CHANNELS 3 Yrotation Xrotation Zrotation
     JOINT Neck
     {
      OFFSET 0.000000 14.331917 0.000000
      CHANNELS 3 Yrotation Xrotation Zrotation
      JOINT Head
      {
       OFFSET 0.000000 8.884799 0.017034
       CHANNELS 3 Yrotation Xrotation Zrotation
       End Site
       {
        OFFSET 0.000000 16.896195 0.008993
       }
      }
     }
     JOINT RightCollar
     {
      OFFSET -2.923010 9.499495 0.000000
      CHANNELS 3 Yrotation Xrotation Zrotation
      JOINT RightShoulder
      {
       OFFSET -13.795216 0.000000 0.000000
       CHANNELS 3 Yrotation Xrotation Zrotation
       JOINT RightElbow
       {
        OFFSET -30.272209 0.000000 0.000000
        CHANNELS 3 Yrotation Xrotation Zrotation
        JOINT RightWrist
        {
         OFFSET -24.478199 0.000000 0.000000
         CHANNELS 3 Yrotation Xrotation Zrotation
         End Site
         {
          OFFSET -18.090752 0.000000 0.000000
         }
        }
       }
      }
     }
     JOINT LeftCollar
     {
      OFFSET 2.923010 9.499495 0.000000
      CHANNELS 3 Yrotation Xrotation Zrotation
      JOINT LeftShoulder
      {
       OFFSET 13.795216 0.000000 0.000000
       CHANNELS 3 Yrotation Xrotation Zrotation
       JOINT LeftElbow
       {
        OFFSET 30.272209 0.000000 0.000000
        CHANNELS 3 Yrotation Xrotation Zrotation
        JOINT LeftWrist
        {
         OFFSET 24.478199 0.000000 0.000000
         CHANNELS 3 Yrotation Xrotation Zrotation
         End Site
         {
          OFFSET 18.090752 0.000000 0.000000
         }
        }
       }
      }
     }
    }
   }
  }
 }
 JOINT RightHip
 {
  OFFSET -7.826875 0.019532 0.001973
  CHANNELS 3 Yrotation Xrotation Zrotation
  JOINT RightKnee
  {
   OFFSET 0.000000 -40.546152 -0.001885
   CHANNELS 3 Yrotation Xrotation Zrotation
   JOINT RightAnkle
   {
    OFFSET 0.000000 -39.417092 -0.003189
    CHANNELS 3 Yrotation Xrotation Zrotation
    JOINT RightToe
    {
     OFFSET 0.000000 -7.579396 17.243563
     CHANNELS 3 Yrotation Xrotation Zrotation
     End Site
     {
      OFFSET 0.000000 -1.500329 6.694466
     }
    }
   }
  }
 }
 JOINT LeftHip
 {
  OFFSET 7.826875 0.019532 0.001973
  CHANNELS 3 Yrotation Xrotation Zrotation
  JOINT LeftKnee
  {
   OFFSET 0.000000 -40.546152 -0.001885
   CHANNELS 3 Yrotation Xrotation Zrotation
   JOINT LeftAnkle
   {
    OFFSET 0.000000 -39.417092 -0.003189
    CHANNELS 3 Yrotation Xrotation Zrotation
    JOINT LeftToe
    {
     OFFSET 0.000000 -7.579396 17.243563
     CHANNELS 3 Yrotation Xrotation Zrotation
     End Site
     {
      OFFSET 0.000000 -1.500329 6.694466
     }
    }
   }
  }
 }
}
MOTION
Frames: 12
Frame Time: 0.008333
0.000000 87.345680 0.000000 0.000000 -5.767889 0.000000 0.000000 11.653876 0.000000 0.000000 -5.885988 0.000000 0.000000 -0.000000 0.000000 0.000000 -0.000000 0.000000 0.000000 12.528808 0.000000 0.000000 0.711711 0.000000 0.000000 -0.000000 0.000000 0.000000 -0.000000 0.000000 2.309063 -0.000000 0.000000 -2.309063 -0.000000 -0.000000 0.000000 -0.000000 0.000000 0.000000 0.000000 0.000000 -2.309063 0.000000 0.000000 2.309063 -0.000000 0.000000 0.000000 8.520374 0.000000 0.000000 1.905768 0.000000 -0.000000 -4.658254 0.000000 0.000000 -0.000000 0.000000 0.000000 8.520374 0.000000 0.000000 1.905768 0.000000 -0.000000 -4.658254 0.000000 0.000000 -0.000000 0.000000
-2.440674 49.024782 -12.552456 -5.205418 -26.710487 -1.359901 14.086494 9.415941 4.739595 8.147328 5.535472 2.224199 10.229155 6.865162 2.905447 8.147328 5.535472 2.224199 -0.553857 14.300069 -2.910201 0.079816 -10.688411 -2.923187 7.927676 -4.396322 -7.947978 11.291749 -23.362365 75.606161 71.166503 18.176650 18.929943 -12.872124 -0.689258 -5.856502 2.935843 -5.333015 4.293529 -1.977571 -17.100875 -83.374339 -73.916381 -5.357711 -28.581339 18.308301 3.490526 8.314168 37.363241 -62.493791 1.287165 117.484579 65.854297 135.136550 2.875827 -23.503144 -5.080008 -0.083927 0.901212 -0.028959 10.018622 -80.768067 78.376541 -145.682543 65.691027 -110.553870 -3.277752 -15.650200 -13.357039 -0.093087 -0.899257 -0.141051
-2.443730 49.025475 -12.549994 -5.215128 -26.708458 -1.367644 14.095969 9.419921 4.746944 8.150105 5.536597 2.226865 10.232682 6.866488 2.908850 8.150106 5.536597 2.226865 -0.594781 14.305020 -2.878598 0.029783 -10.684106 -2.880114 7.917495 -4.399394 -7.950410 11.292205 -23.338710 75.581983 71.214872 18.156186 18.947990 -12.881979 -0.706005 -5.867842 2.934731 -5.324207 4.296061 -1.970559 -17.096775 -83.366893 -73.929382 -5.390533 -28.604331 18.298979 3.487983 8.328032 37.379313 -62.496557 1.285864 117.471844 65.853574 135.127229 2.889965 -23.515030 -5.077666 -0.097404 0.907959 -0.034802 9.892824 -80.781678 78.516437 -145.666198 65.690373 -110.536161 -3.288715 -15.617937 -13.342977 -0.078034 -0.899557 -0.128812
-2.446314 49.025883 -12.547696 -5.225941 -26.702619 -1.371868 14.102395 9.420716 4.749675 8.152219 5.537482 2.229167 10.235370 6.867527 2.911780 8.152219 5.537482 2.229167 -0.637867 14.309515 -2.847777 -0.022314 -10.680231 -2.837425 7.913266 -4.399047 -7.950067 11.292910 -23.318147 75.554966 71.267067 18.148342 18.964093 -12.891758 -0.719553 -5.874170 2.940377 -5.313357 4.296601 -1.966139 -17.097112 -83.356870 -73.941325 -5.423509 -28.622825 18.291639 3.487645 8.337816 37.403134 -62.501571 1.274533 117.461148 65.850187 135.118384 2.905476 -23.525763 -5.074379 -0.112918 0.913147 -0.041777 9.794714 -80.792558 78.626508 -145.647933 65.688650 -110.520398 -3.295107 -15.587865 -13.331229 -0.068624 -0.900854 -0.117856
-2.448850 49.026084 -12.545565 -5.237591 -26.694351 -1.375427 14.108344 9.417780 4.752438 8.153590 5.538322 2.231278 10.237125 6.868518 2.914461 8.153590 5.538322 2.231278 -0.682974 14.313786 -2.819073 -0.076028 -10.676511 -2.796575 7.911355 -4.394136 -7.948680 11.298150 -23.300033 75.526988 71.322506 18.152829 18.976545 -12.903975 -0.728543 -5.877958 2.948561 -5.303267 4.294050 -1.963144 -17.096303 -83.342552 -73.953624 -5.455421 -28.636444 18.286586 3.489481 8.340634 37.425340 -62.510305 1.263362 117.456045 65.846303 135.112307 2.921761 -23.531989 -5.068907 -0.129799 0.914974 -0.050111 9.709903 -80.799282 78.722663 -145.621146 65.687917 -110.499698 -3.300284 -15.560795 -13.323364 -0.061837 -0.900974 -0.107116
-2.451594 49.026177 -12.543604 -5.250326 -26.684726 -1.379912 14.114542 9.412777 4.759510 8.153523 5.539030 2.233133 10.237076 6.869361 2.916796 8.153523 5.539030 2.233133 -0.729660 14.318173 -2.795467 -0.130228 -10.672521 -2.760841 7.915424 -4.384267 -7.949077 11.307591 -23.282146 75.496296 71.380192 18.167049 18.985482 -12.917634 -0.734193 -5.882310 2.959352 -5.292027 4.286580 -1.957163 -17.092465 -83.324380 -73.970787 -5.483933 -28.653929 18.282704 3.493077 8.344148 37.442985 -62.522204 1.257438 117.451026 65.842965 135.105634 2.934214 -23.534331 -5.064312 -0.143837 0.914814 -0.056931 9.630266 -80.801646 78.814399 -145.588231 65.687699 -110.475485 -3.303829 -15.540635 -13.319421 -0.055370 -0.897670 -0.096528
-2.454232 49.026334 -12.541630 -5.263792 -26.675294 -1.383649 14.120032 9.408682 4.767793 8.152280 5.539957 2.234567 10.235551 6.870495 2.918593 8.152280 5.539957 2.234567 -0.776498 14.321687 -2.775929 -0.183656 -10.669314 -2.729439 7.928926 -4.375157 -7.950818 11.320158 -23.262140 75.463141 71.434666 18.188888 18.989507 -12.932067 -0.737073 -5.888749 2.971812 -5.280689 4.276516 -1.941746 -17.088677 -83.306486 -73.994355 -5.503546 -28.682507 18.280030 3.496628 8.350136 37.459143 -62.533318 1.253574 117.441666 65.839425 135.094763 2.943222 -23.536311 -5.061440 -0.154602 0.915110 -0.062112 9.566768 -80.799233 78.890992 -145.554838 65.687757 -110.453565 -3.304060 -15.529697 -13.316594 -0.050711 -0.890119 -0.087287
-2.457075 49.026812 -12.539405 -5.280548 -26.668200 -1.387383 14.128095 9.407715 4.776822 8.151558 5.541251 2.235729 10.234678 6.872091 2.920066 8.151558 5.541251 2.235729 -0.823591 14.323182 -2.757270 -0.237140 -10.668154 -2.698942 7.944648 -4.371283 -7.952467 11.336344 -23.240112 75.431235 71.483458 18.217291 18.987725 -12.946315 -0.739631 -5.898930 2.980682 -5.271775 4.267030 -1.923354 -17.087134 -83.292901 -74.021038 -5.512415 -28.710395 18.280050 3.499751 8.357799 37.469237 -62.542814 1.258664 117.428566 65.835847 135.080437 2.948414 -23.537848 -5.059817 -0.162243 0.915571 -0.066562 9.503868 -80.791773 78.972761 -145.516071 65.686740 -110.427393 -3.303367 -15.526830 -13.316438 -0.044767 -0.878768 -0.077648
-2.460155 49.027911 -12.536528 -5.301881 -26.666325 -1.390692 14.141597 9.411164 4.787032 8.152334 5.543236 2.237055 10.235690 6.874535 2.921784 8.152334 5.543236 2.237055 -0.873108 14.321711 -2.738222 -0.293237 -10.670051 -2.667505 7.955600 -4.371799 -7.954361 11.354765 -23.218952 75.400020 71.527604 18.246989 18.982958 -12.958875 -0.745256 -5.914655 2.983220 -5.266191 4.257487 -1.910939 -17.084777 -83.281686 -74.050484 -5.515020 -28.726729 18.282871 3.505089 8.364400 37.470333 -62.547646 1.276928 117.410203 65.831679 135.060317 2.951596 -23.540234 -5.059977 -0.169148 0.916818 -0.070435 9.440491 -80.776692 79.062532 -145.470332 65.684375 -110.392981 -3.303984 -15.531258 -13.320801 -0.034597 -0.864987 -0.066943
-2.462946 49.029440 -12.533442 -5.325826 -26.666517 -1.391741 14.158494 9.415508 4.796016 8.154036 5.545626 2.238414 10.237864 6.877478 2.923566 8.154036 5.545626 2.238414 -0.926315 14.318078 -2.718368 -0.353367 -10.674171 -2.634405 7.959806 -4.373976 -7.957227 11.375281 -23.199871 75.367855 71.568238 18.269797 18.980629 -12.970368 -0.752566 -5.936310 2.980335 -5.262211 4.247219 -1.899852 -17.077487 -83.270791 -74.084944 -5.515992 -28.735843 18.286371 3.512297 8.365072 37.469972 -62.549097 1.298495 117.388586 65.827820 135.034320 2.956732 -23.543295 -5.060594 -0.178302 0.919013 -0.073965 9.397391 -80.757523 79.134840 -145.425697 65.680951 -110.359791 -3.300933 -15.541848 -13.325323 -0.026012 -0.849747 -0.058115
-2.465168 49.030945 -12.531070 -5.348569 -26.662604 -1.391153 14.174325 9.417013 4.802799 8.155621 5.547966 2.239174 10.239884 6.880372 2.924595 8.155621 5.547966 2.239174 -0.983661 14.312890 -2.697626 -0.418019 -10.679878 -2.599461 7.959410 -4.376979 -7.960965 11.397744 -23.182193 75.335098 71.606148 18.281931 18.983584 -12.982260 -0.757766 -5.960899 2.974472 -5.258881 4.236002 -1.888420 -17.066406 -83.261159 -74.123084 -5.517235 -28.739239 18.289580 3.516623 8.363283 37.473866 -62.554268 1.313104 117.368979 65.823967 135.009284 2.960410 -23.542285 -5.062102 -0.186234 0.918195 -0.075956 9.380081 -80.742768 79.178761 -145.385913 65.678897 -110.332843 -3.293830 -15.554303 -13.326977 -0.023620 -0.833833 -0.051900
-2.467162 49.032451 -12.529406 -5.365944 -26.655046 -1.392805 14.185465 9.416282 4.808116 8.156537 5.550527 2.239187 10.241057 6.883564 2.924686 8.156537 5.550527 2.239187 -1.044740 14.305152 -2.675293 -0.486924 -10.688212 -2.562021 7.959190 -4.381883 -7.964018 11.419175 -23.167867 75.303905 71.639052 18.284327 18.992413 -12.995250 -0.759143 -5.987527 2.971578 -5.257299 4.225689 -1.881400 -17.056463 -83.254056 -74.161163 -5.518255 -28.737058 18.293964 3.515641 8.364941 37.471998 -62.564572 1.326853 117.355006 65.819301 134.990992 2.959223 -23.535213 -5.066905 -0.188589 0.911898 -0.075598 9.360006 -80.734325 79.219685 -145.347547 65.679928 -110.308047 -3.287785 -15.562301 -13.327273 -0.026000 -0.819624 -0.046442
